<svg width="129" height="38" viewBox="0 0 129 38" fill="none" xmlns="http://www.w3.org/2000/svg">
<g clip-path="url(#clip0_1248_4120)">
<path d="M12.5977 10.1328L15.7471 16.8461L22.6758 17.8595L17.6367 23.0528L18.7705 30.3995L12.5977 26.9795L6.4248 30.3995L7.55859 23.0528L2.51953 17.8595L9.44824 16.8461L12.5977 10.1328Z" fill="#F6B736"/>
<path d="M36.5332 10.1328L39.6826 16.8461L46.6113 17.8595L41.5723 23.0528L42.7061 30.3995L36.5332 26.9795L30.3604 30.3995L31.4941 23.0528L26.4551 17.8595L33.3838 16.8461L36.5332 10.1328Z" fill="#F6B736"/>
<path d="M60.4688 10.1328L63.6182 16.8461L70.5469 17.8595L65.5078 23.0528L66.6416 30.3995L60.4688 26.9795L54.2959 30.3995L55.4297 23.0528L50.3906 17.8595L57.3193 16.8461L60.4688 10.1328Z" fill="#F6B736"/>
<path d="M84.4043 10.1328L87.5537 16.8461L94.4824 17.8595L89.4434 23.0528L90.5772 30.3995L84.4043 26.9795L78.2314 30.3995L79.3652 23.0528L74.3262 17.8595L81.2549 16.8461L84.4043 10.1328Z" fill="#F6B736"/>
<path d="M108.34 11.3101L111.037 17.0585L111.151 17.302L111.417 17.3409L117.378 18.2128L113.02 22.7046L112.847 22.8832L112.885 23.1291L113.863 29.4679L108.582 26.5421L108.34 26.4079L108.098 26.5421L102.817 29.4679L103.795 23.1291L103.833 22.8832L103.66 22.7046L99.3012 18.2128L105.263 17.3409L105.529 17.302L105.643 17.0585L108.34 11.3101Z" stroke="#F6B736"/>
</g>
<defs>
<clipPath id="clip0_1248_4120">
<rect width="129" height="38" fill="white"/>
</clipPath>
</defs>
</svg>
